<svg width="200" height="133" viewBox="0 0 200 133" fill="none" xmlns="http://www.w3.org/2000/svg">
<g filter="url(#filter0_d_5_2)">
<path d="M130.585 88.2096L124.153 94.6415V107.046M138.395 88.669L133.801 93.2632V94.4118L137.477 98.0872V99.0061L135.639 100.844M141.611 92.8038V113.019M156.313 88.669V99.0061L147.814 107.505V121.977M78.9 30.0923V23.8901M66.2658 23.201V18.1473L73.8463 10.5668M51.3345 30.0923V20.6741M40.3083 30.0923V3.21597M26.7552 32.1597V24.8089L34.5655 16.9987V10.5668M165.961 87.9799V104.749L173.082 111.87H179.055" stroke="url(#paint0_linear_5_2)" stroke-width="2"/>
<path d="M51.3856 45.2484V42.5538C44.445 42.2272 29.6328 42.0149 25.9094 43.7786C21.2551 45.9833 15.6209 71.9494 18.0705 74.8889C20.0303 77.2406 36.1979 76.6853 44.0367 76.1137L46.4863 64.8454H33.0133L35.218 54.8019H61.1842L54.3252 87.382C37.1777 87.382 8.66394 92.1343 7.29215 81.7479C5.5774 68.7648 11.7015 43.7786 18.0705 36.6747C23.1658 30.9915 52.2022 30.7139 66.0834 31.2855L62.8989 45.2484H51.3856Z" stroke="url(#paint1_linear_5_2)" stroke-width="6"/>
<path d="M72.4525 31.2855L59.9593 87.382H73.6773L81.5161 53.8221L88.8651 76.1137H98.1737L117.281 53.8221L109.442 87.382H123.405L136.388 31.2855H120.465L98.1737 57.9865L88.8651 31.2855H72.4525Z" stroke="url(#paint2_linear_5_2)" stroke-width="6"/>
<path d="M144.962 34.47C151.331 29.3258 176.317 30.9589 190.77 31.2855L188.32 45.2484H175.827V42.7987C169.376 42.9621 155.084 41.8826 152.556 43.7786C150.596 45.2484 149.371 49.1678 151.331 52.3523C152.716 54.603 164.314 51.1275 178.032 54.8019C186.257 57.0052 185.381 78.0734 175.827 84.6874C171.154 87.9226 143.737 88.1169 128.549 87.382L131.489 76.1137H166.029C171.173 76.1137 170.892 67.1547 168.723 66.0702C163.334 63.3756 143.63 69.2548 139.818 62.6408C132.193 49.4127 139.501 38.8803 144.962 34.47Z" stroke="url(#paint3_linear_5_2)" stroke-width="6"/>
<path d="M51.3856 45.2484V42.5538C44.445 42.2272 29.6328 42.0149 25.9094 43.7786C21.2551 45.9833 15.6209 71.9494 18.0705 74.889C20.0303 77.2407 36.1979 76.6854 44.0367 76.1138L46.4863 64.8455H33.0133L35.218 54.802H61.1842L54.3252 87.3822C37.1777 87.3822 8.66394 92.1345 7.29215 81.748C5.5774 68.7649 11.7015 43.7786 18.0705 36.6747C23.1658 30.9915 52.2022 30.7139 66.0834 31.2855L62.8989 45.2484H51.3856Z" fill="url(#paint4_linear_5_2)"/>
<path d="M72.4525 31.2855L59.9593 87.3822H73.6773L81.5161 53.8221L88.8651 76.1138H98.1737L117.281 53.8221L109.442 87.3822H123.405L136.388 31.2855H120.465L98.1737 57.9865L88.8651 31.2855H72.4525Z" fill="url(#paint5_linear_5_2)"/>
<path d="M144.962 34.47C151.331 29.3258 176.317 30.9589 190.77 31.2855L188.32 45.2484H175.827V42.7988C169.376 42.9621 155.084 41.8827 152.556 43.7786C150.596 45.2484 149.371 49.1678 151.331 52.3524C152.716 54.6031 164.314 51.1275 178.032 54.802C186.257 57.0052 185.381 78.0735 175.827 84.6876C171.154 87.9227 143.737 88.117 128.549 87.3822L131.489 76.1138H166.029C171.173 76.1138 170.892 67.1548 168.723 66.0703C163.334 63.3757 143.63 69.2548 139.818 62.6408C132.193 49.4128 139.501 38.8803 144.962 34.47Z" fill="url(#paint6_linear_5_2)"/>
<path d="M51.3856 45.2484V42.5538C44.445 42.2272 29.6328 42.0149 25.9094 43.7786C21.2551 45.9833 15.6209 71.9494 18.0705 74.889C20.0303 77.2407 36.1979 76.6854 44.0367 76.1138L46.4863 64.8455H33.0133L35.218 54.802H61.1842L54.3252 87.3822C37.1777 87.3822 8.66394 92.1345 7.29215 81.748C5.5774 68.7649 11.7015 43.7786 18.0705 36.6747C23.1658 30.9915 52.2022 30.7139 66.0834 31.2855L62.8989 45.2484H51.3856Z" stroke="black" stroke-width="2"/>
<path d="M72.4525 31.2855L59.9593 87.3822H73.6773L81.5161 53.8221L88.8651 76.1138H98.1737L117.281 53.8221L109.442 87.3822H123.405L136.388 31.2855H120.465L98.1737 57.9865L88.8651 31.2855H72.4525Z" stroke="black" stroke-width="2"/>
<path d="M144.962 34.47C151.331 29.3258 176.317 30.9589 190.77 31.2855L188.32 45.2484H175.827V42.7988C169.376 42.9621 155.084 41.8827 152.556 43.7786C150.596 45.2484 149.371 49.1678 151.331 52.3524C152.716 54.6031 164.314 51.1275 178.032 54.802C186.257 57.0052 185.381 78.0735 175.827 84.6876C171.154 87.9227 143.737 88.117 128.549 87.3822L131.489 76.1138H166.029C171.173 76.1138 170.892 67.1548 168.723 66.0703C163.334 63.3757 143.63 69.2548 139.818 62.6408C132.193 49.4128 139.501 38.8803 144.962 34.47Z" stroke="black" stroke-width="2"/>
<path d="M63.9687 46.4019L67.6441 30.322M55.6991 88.669L63.0499 53.9824M19.8639 75.8051C17.4143 72.8655 23.709 45.1609 28.3633 42.9562M88.548 30.322L98.1959 57.8875M137.706 30.322L124.383 88.669M82.3457 55.5904L74.5355 88.669M192.378 30.322L189.699 45.2484H177.205V42.7987C170.755 42.9621 156.462 41.8826 153.934 43.7786C151.974 45.2484 150.749 49.1678 152.709 52.3523C154.094 54.603 165.692 51.1275 179.41 54.8019C187.636 57.0052 186.759 78.0734 177.205 84.6874C172.532 87.9226 145.115 88.1169 129.928 87.382" stroke="url(#paint7_linear_5_2)" stroke-width="6"/>
<path d="M51.3856 45.2484V42.5538C44.445 42.2272 29.6328 42.0149 25.9094 43.7786C21.2551 45.9833 15.6209 71.9494 18.0705 74.889C20.0303 77.2407 36.1979 76.6854 44.0367 76.1138L46.4863 64.8455H33.0133L35.218 54.802H61.1842L54.3252 87.3822C37.1777 87.3822 8.66394 92.1345 7.29215 81.748C5.5774 68.7649 11.7015 43.7786 18.0705 36.6747C23.1658 30.9915 52.2022 30.7139 66.0834 31.2855L62.8989 45.2484H51.3856Z" stroke="white" stroke-width="2"/>
<path d="M72.4525 31.2855L59.9593 87.3822H73.6773L81.5161 53.8221L88.8651 76.1138H98.1737L117.281 53.8221L109.442 87.3822H123.405L136.388 31.2855H120.465L98.1737 57.9865L88.8651 31.2855H72.4525Z" stroke="white" stroke-width="2"/>
<path d="M144.962 34.47C151.331 29.3258 176.317 30.9589 190.77 31.2855L188.32 45.2484H175.827V42.7988C169.376 42.9621 155.084 41.8827 152.556 43.7786C150.596 45.2484 149.371 49.1678 151.331 52.3524C152.716 54.6031 164.314 51.1275 178.032 54.802C186.257 57.0052 185.381 78.0735 175.827 84.6876C171.154 87.9227 143.737 88.117 128.549 87.3822L131.489 76.1138H166.029C171.173 76.1138 170.892 67.1548 168.723 66.0703C163.334 63.3757 143.63 69.2548 139.818 62.6408C132.193 49.4128 139.501 38.8803 144.962 34.47Z" stroke="white" stroke-width="2"/>
<circle cx="74.3057" cy="9.87763" r="1" stroke="#10EFFF" stroke-width="1.21597"/>
<circle cx="66.0361" cy="24.1198" r="1" stroke="#10EFFF" stroke-width="1.21597"/>
<circle cx="78.9" cy="22.7415" r="1" stroke="#10EFFF" stroke-width="1.21597"/>
<circle cx="51.3345" cy="19.5256" r="1" stroke="#10EFFF" stroke-width="1.21597"/>
<circle cx="40.3083" cy="1.60799" r="1" stroke="#10EFFF" stroke-width="1.21597"/>
<circle cx="34.3358" cy="9.87763" r="1" stroke="#10EFFF" stroke-width="1.21597"/>
<circle cx="44.9025" cy="24.1198" r="1" stroke="#10EFFF" stroke-width="1.21597"/>
<circle cx="123.924" cy="107.735" r="1" stroke="#DC23FB" stroke-width="1.21597"/>
<circle cx="134.95" cy="101.303" r="1" stroke="#DC23FB" stroke-width="1.21597"/>
<circle cx="141.841" cy="91.6553" r="1" stroke="#DC23FB" stroke-width="1.21597"/>
<circle cx="141.841" cy="113.708" r="1" stroke="#DC23FB" stroke-width="1.21597"/>
<circle cx="147.814" cy="122.896" r="1" stroke="#DC23FB" stroke-width="1.21597"/>
<circle cx="179.973" cy="111.411" r="1" stroke="#DC23FB" stroke-width="1.21597"/>
<circle cx="137.247" cy="117.383" r="1" stroke="#DC23FB" stroke-width="1.21597"/>
</g>
<defs>
<filter id="filter0_d_5_2" x="0.000366211" y="0" width="199.33" height="132.504" filterUnits="userSpaceOnUse" color-interpolation-filters="sRGB">
<feFlood flood-opacity="0" result="BackgroundImageFix"/>
<feColorMatrix in="SourceAlpha" type="matrix" values="0 0 0 0 0 0 0 0 0 0 0 0 0 0 0 0 0 0 127 0" result="hardAlpha"/>
<feOffset dy="4"/>
<feGaussianBlur stdDeviation="2"/>
<feComposite in2="hardAlpha" operator="out"/>
<feColorMatrix type="matrix" values="0 0 0 0 0 0 0 0 0 0 0 0 0 0 0 0 0 0 0.5 0"/>
<feBlend mode="normal" in2="BackgroundImageFix" result="effect1_dropShadow_5_2"/>
<feBlend mode="normal" in="SourceGraphic" in2="effect1_dropShadow_5_2" result="shape"/>
</filter>
<linearGradient id="paint0_linear_5_2" x1="102.905" y1="3.21597" x2="102.905" y2="126.572" gradientUnits="userSpaceOnUse">
<stop stop-color="#00FFFF"/>
<stop offset="1" stop-color="#FF00FB"/>
</linearGradient>
<linearGradient id="paint1_linear_5_2" x1="98.885" y1="30.7815" x2="98.885" y2="88.4671" gradientUnits="userSpaceOnUse">
<stop stop-color="#00FFFF"/>
<stop offset="1" stop-color="#FF00FB"/>
</linearGradient>
<linearGradient id="paint2_linear_5_2" x1="98.885" y1="30.7815" x2="98.885" y2="88.4671" gradientUnits="userSpaceOnUse">
<stop stop-color="#00FFFF"/>
<stop offset="1" stop-color="#FF00FB"/>
</linearGradient>
<linearGradient id="paint3_linear_5_2" x1="98.885" y1="30.7815" x2="98.885" y2="88.4671" gradientUnits="userSpaceOnUse">
<stop stop-color="#00FFFF"/>
<stop offset="1" stop-color="#FF00FB"/>
</linearGradient>
<linearGradient id="paint4_linear_5_2" x1="98.885" y1="30.7815" x2="98.885" y2="88.4672" gradientUnits="userSpaceOnUse">
<stop stop-color="white"/>
<stop offset="0.05" stop-color="#13ECFF"/>
<stop offset="0.2" stop-color="#69ABC1"/>
<stop offset="0.335" stop-color="#69ABC1"/>
<stop offset="0.5" stop-color="white"/>
<stop offset="0.64" stop-color="#69ABC1"/>
<stop offset="0.8" stop-color="#562F88"/>
<stop offset="0.95" stop-color="#DF7DEF"/>
<stop offset="1" stop-color="white"/>
</linearGradient>
<linearGradient id="paint5_linear_5_2" x1="98.885" y1="30.7815" x2="98.885" y2="88.4672" gradientUnits="userSpaceOnUse">
<stop stop-color="white"/>
<stop offset="0.05" stop-color="#13ECFF"/>
<stop offset="0.2" stop-color="#69ABC1"/>
<stop offset="0.335" stop-color="#69ABC1"/>
<stop offset="0.5" stop-color="white"/>
<stop offset="0.64" stop-color="#69ABC1"/>
<stop offset="0.8" stop-color="#562F88"/>
<stop offset="0.95" stop-color="#DF7DEF"/>
<stop offset="1" stop-color="white"/>
</linearGradient>
<linearGradient id="paint6_linear_5_2" x1="98.885" y1="30.7815" x2="98.885" y2="88.4672" gradientUnits="userSpaceOnUse">
<stop stop-color="white"/>
<stop offset="0.05" stop-color="#13ECFF"/>
<stop offset="0.2" stop-color="#69ABC1"/>
<stop offset="0.335" stop-color="#69ABC1"/>
<stop offset="0.5" stop-color="white"/>
<stop offset="0.64" stop-color="#69ABC1"/>
<stop offset="0.8" stop-color="#562F88"/>
<stop offset="0.95" stop-color="#DF7DEF"/>
<stop offset="1" stop-color="white"/>
</linearGradient>
<linearGradient id="paint7_linear_5_2" x1="100.263" y1="30.7815" x2="100.263" y2="88.4671" gradientUnits="userSpaceOnUse">
<stop stop-color="#00FFFF"/>
<stop offset="1" stop-color="#FF00FB"/>
</linearGradient>
</defs>
</svg>
