<svg width="1366" height="204" viewBox="0 0 1366 204" fill="none" xmlns="http://www.w3.org/2000/svg">
<g filter="url(#filter0_d_17_11)">
<g filter="url(#filter1_d_17_11)">
<path d="M435 132H298.5L249 181.5H52L22 151.5V52L52 22H1314L1344 52V102L1314 132H1198L1171.5 158.5H1062L1035.5 132H823H565H486M454.5 132V118H435V161.5H454.5V132ZM454.5 132H468.5M468.5 132V161.5H486V132M468.5 132V118H486V132" stroke="#10EFFF" stroke-opacity="0.5" stroke-width="4" shape-rendering="crispEdges"/>
</g>
<g filter="url(#filter2_d_17_11)">
<circle cx="1298" cy="154" r="8" transform="rotate(-180 1298 154)" stroke="#10EFFF" stroke-opacity="0.5" stroke-width="4" shape-rendering="crispEdges"/>
</g>
<g filter="url(#filter3_d_17_11)">
<circle cx="1256" cy="154" r="8" transform="rotate(-180 1256 154)" stroke="#10EFFF" stroke-opacity="0.5" stroke-width="4" shape-rendering="crispEdges"/>
</g>
<g filter="url(#filter4_d_17_11)">
<circle cx="1214" cy="154" r="8" transform="rotate(-180 1214 154)" stroke="#10EFFF" stroke-opacity="0.5" stroke-width="4" shape-rendering="crispEdges"/>
</g>
</g>
<g filter="url(#filter5_d_17_11)">
<path d="M184.585 128.21L178.153 134.642V147.046M192.395 128.669L187.801 133.263V134.412L191.477 138.087V139.006L189.639 140.844M195.611 132.804V153.019M210.313 128.669V139.006L201.814 147.505V161.977M132.9 70.0923V63.8901M120.266 63.201V58.1473L127.846 50.5668M105.334 70.0923V60.6741M94.3083 70.0923V43.216M80.7552 72.1597V64.8089L88.5655 56.9987V50.5668M219.961 127.98V144.749L227.082 151.87H233.055" stroke="url(#paint0_linear_17_11)" stroke-width="2"/>
<path d="M105.386 85.2484V82.5538C98.445 82.2272 83.6328 82.0149 79.9094 83.7786C75.2551 85.9833 69.6209 111.949 72.0705 114.889C74.0303 117.241 90.1979 116.685 98.0367 116.114L100.486 104.845H87.0133L89.218 94.8019H115.184L108.325 127.382C91.1777 127.382 62.6639 132.134 61.2921 121.748C59.5774 108.765 65.7015 83.7786 72.0705 76.6747C77.1658 70.9915 106.202 70.7139 120.083 71.2855L116.899 85.2484H105.386Z" stroke="url(#paint1_linear_17_11)" stroke-width="6"/>
<path d="M126.452 71.2855L113.959 127.382H127.677L135.516 93.8221L142.865 116.114H152.174L171.281 93.8221L163.442 127.382H177.405L190.388 71.2855H174.465L152.174 97.9865L142.865 71.2855H126.452Z" stroke="url(#paint2_linear_17_11)" stroke-width="6"/>
<path d="M198.962 74.47C205.331 69.3258 230.317 70.9589 244.77 71.2855L242.32 85.2484H229.827V82.7987C223.376 82.9621 209.084 81.8826 206.556 83.7786C204.596 85.2484 203.371 89.1678 205.331 92.3523C206.716 94.603 218.314 91.1275 232.032 94.8019C240.257 97.0052 239.381 118.073 229.827 124.687C225.154 127.923 197.737 128.117 182.549 127.382L185.489 116.114H220.029C225.173 116.114 224.892 107.155 222.723 106.07C217.334 103.376 197.63 109.255 193.818 102.641C186.193 89.4127 193.501 78.8803 198.962 74.47Z" stroke="url(#paint3_linear_17_11)" stroke-width="6"/>
<path d="M105.386 85.2484V82.5538C98.445 82.2272 83.6328 82.0149 79.9094 83.7786C75.2551 85.9833 69.6209 111.949 72.0705 114.889C74.0303 117.241 90.1979 116.685 98.0367 116.114L100.486 104.845H87.0133L89.218 94.802H115.184L108.325 127.382C91.1777 127.382 62.6639 132.134 61.2921 121.748C59.5774 108.765 65.7015 83.7786 72.0705 76.6747C77.1658 70.9915 106.202 70.7139 120.083 71.2855L116.899 85.2484H105.386Z" fill="url(#paint4_linear_17_11)"/>
<path d="M126.452 71.2855L113.959 127.382H127.677L135.516 93.8221L142.865 116.114H152.174L171.281 93.8221L163.442 127.382H177.405L190.388 71.2855H174.465L152.174 97.9865L142.865 71.2855H126.452Z" fill="url(#paint5_linear_17_11)"/>
<path d="M198.962 74.47C205.331 69.3258 230.317 70.9589 244.77 71.2855L242.32 85.2484H229.827V82.7988C223.376 82.9621 209.084 81.8827 206.556 83.7786C204.596 85.2484 203.371 89.1678 205.331 92.3524C206.716 94.6031 218.314 91.1275 232.032 94.802C240.257 97.0052 239.381 118.074 229.827 124.688C225.154 127.923 197.737 128.117 182.549 127.382L185.489 116.114H220.029C225.173 116.114 224.892 107.155 222.723 106.07C217.334 103.376 197.63 109.255 193.818 102.641C186.193 89.4128 193.501 78.8803 198.962 74.47Z" fill="url(#paint6_linear_17_11)"/>
<path d="M105.386 85.2484V82.5538C98.445 82.2272 83.6328 82.0149 79.9094 83.7786C75.2551 85.9833 69.6209 111.949 72.0705 114.889C74.0303 117.241 90.1979 116.685 98.0367 116.114L100.486 104.845H87.0133L89.218 94.802H115.184L108.325 127.382C91.1777 127.382 62.6639 132.134 61.2921 121.748C59.5774 108.765 65.7015 83.7786 72.0705 76.6747C77.1658 70.9915 106.202 70.7139 120.083 71.2855L116.899 85.2484H105.386Z" stroke="black" stroke-width="2"/>
<path d="M126.452 71.2855L113.959 127.382H127.677L135.516 93.8221L142.865 116.114H152.174L171.281 93.8221L163.442 127.382H177.405L190.388 71.2855H174.465L152.174 97.9865L142.865 71.2855H126.452Z" stroke="black" stroke-width="2"/>
<path d="M198.962 74.47C205.331 69.3258 230.317 70.9589 244.77 71.2855L242.32 85.2484H229.827V82.7988C223.376 82.9621 209.084 81.8827 206.556 83.7786C204.596 85.2484 203.371 89.1678 205.331 92.3524C206.716 94.6031 218.314 91.1275 232.032 94.802C240.257 97.0052 239.381 118.074 229.827 124.688C225.154 127.923 197.737 128.117 182.549 127.382L185.489 116.114H220.029C225.173 116.114 224.892 107.155 222.723 106.07C217.334 103.376 197.63 109.255 193.818 102.641C186.193 89.4128 193.501 78.8803 198.962 74.47Z" stroke="black" stroke-width="2"/>
<path d="M117.969 86.4019L121.644 70.322M109.699 128.669L117.05 93.9824M73.8639 115.805C71.4143 112.866 77.709 85.1609 82.3633 82.9562M142.548 70.322L152.196 97.8875M191.706 70.322L178.383 128.669M136.346 95.5904L128.536 128.669M246.378 70.322L243.699 85.2484H231.205V82.7987C224.755 82.9621 210.462 81.8826 207.934 83.7786C205.974 85.2484 204.749 89.1678 206.709 92.3523C208.094 94.603 219.692 91.1275 233.41 94.8019C241.636 97.0052 240.759 118.073 231.205 124.687C226.532 127.923 199.115 128.117 183.928 127.382" stroke="url(#paint7_linear_17_11)" stroke-width="6"/>
<path d="M105.386 85.2484V82.5538C98.445 82.2272 83.6328 82.0149 79.9094 83.7786C75.2551 85.9833 69.6209 111.949 72.0705 114.889C74.0303 117.241 90.1979 116.685 98.0367 116.114L100.486 104.845H87.0133L89.218 94.802H115.184L108.325 127.382C91.1777 127.382 62.6639 132.134 61.2921 121.748C59.5774 108.765 65.7015 83.7786 72.0705 76.6747C77.1658 70.9915 106.202 70.7139 120.083 71.2855L116.899 85.2484H105.386Z" stroke="white" stroke-width="2"/>
<path d="M126.452 71.2855L113.959 127.382H127.677L135.516 93.8221L142.865 116.114H152.174L171.281 93.8221L163.442 127.382H177.405L190.388 71.2855H174.465L152.174 97.9865L142.865 71.2855H126.452Z" stroke="white" stroke-width="2"/>
<path d="M198.962 74.47C205.331 69.3258 230.317 70.9589 244.77 71.2855L242.32 85.2484H229.827V82.7988C223.376 82.9621 209.084 81.8827 206.556 83.7786C204.596 85.2484 203.371 89.1678 205.331 92.3524C206.716 94.6031 218.314 91.1275 232.032 94.802C240.257 97.0052 239.381 118.074 229.827 124.688C225.154 127.923 197.737 128.117 182.549 127.382L185.489 116.114H220.029C225.173 116.114 224.892 107.155 222.723 106.07C217.334 103.376 197.63 109.255 193.818 102.641C186.193 89.4128 193.501 78.8803 198.962 74.47Z" stroke="white" stroke-width="2"/>
<circle cx="128.306" cy="49.8776" r="1" stroke="#10EFFF" stroke-width="1.21597"/>
<circle cx="120.036" cy="64.1198" r="1" stroke="#10EFFF" stroke-width="1.21597"/>
<circle cx="132.9" cy="62.7415" r="1" stroke="#10EFFF" stroke-width="1.21597"/>
<circle cx="105.335" cy="59.5256" r="1" stroke="#10EFFF" stroke-width="1.21597"/>
<circle cx="94.3083" cy="41.608" r="1" stroke="#10EFFF" stroke-width="1.21597"/>
<circle cx="88.3358" cy="49.8776" r="1" stroke="#10EFFF" stroke-width="1.21597"/>
<circle cx="98.9025" cy="64.1198" r="1" stroke="#10EFFF" stroke-width="1.21597"/>
<circle cx="177.924" cy="147.735" r="1" stroke="#DC23FB" stroke-width="1.21597"/>
<circle cx="188.95" cy="141.303" r="1" stroke="#DC23FB" stroke-width="1.21597"/>
<circle cx="195.841" cy="131.655" r="1" stroke="#DC23FB" stroke-width="1.21597"/>
<circle cx="195.841" cy="153.708" r="1" stroke="#DC23FB" stroke-width="1.21597"/>
<circle cx="201.814" cy="162.896" r="1" stroke="#DC23FB" stroke-width="1.21597"/>
<circle cx="233.973" cy="151.411" r="1" stroke="#DC23FB" stroke-width="1.21597"/>
<circle cx="191.247" cy="157.383" r="1" stroke="#DC23FB" stroke-width="1.21597"/>
</g>
<defs>
<filter id="filter0_d_17_11" x="0" y="0" width="1366" height="203.5" filterUnits="userSpaceOnUse" color-interpolation-filters="sRGB">
<feFlood flood-opacity="0" result="BackgroundImageFix"/>
<feColorMatrix in="SourceAlpha" type="matrix" values="0 0 0 0 0 0 0 0 0 0 0 0 0 0 0 0 0 0 127 0" result="hardAlpha"/>
<feOffset/>
<feGaussianBlur stdDeviation="10"/>
<feComposite in2="hardAlpha" operator="out"/>
<feColorMatrix type="matrix" values="0 0 0 0 0 0 0 0 0 0.839216 0 0 0 0 0.960784 0 0 0 0.5 0"/>
<feBlend mode="normal" in2="BackgroundImageFix" result="effect1_dropShadow_17_11"/>
<feBlend mode="normal" in="SourceGraphic" in2="effect1_dropShadow_17_11" result="shape"/>
</filter>
<filter id="filter1_d_17_11" x="0" y="0" width="1366" height="203.5" filterUnits="userSpaceOnUse" color-interpolation-filters="sRGB">
<feFlood flood-opacity="0" result="BackgroundImageFix"/>
<feColorMatrix in="SourceAlpha" type="matrix" values="0 0 0 0 0 0 0 0 0 0 0 0 0 0 0 0 0 0 127 0" result="hardAlpha"/>
<feOffset/>
<feGaussianBlur stdDeviation="10"/>
<feComposite in2="hardAlpha" operator="out"/>
<feColorMatrix type="matrix" values="0 0 0 0 1 0 0 0 0 1 0 0 0 0 1 0 0 0 0.25 0"/>
<feBlend mode="normal" in2="BackgroundImageFix" result="effect1_dropShadow_17_11"/>
<feBlend mode="normal" in="SourceGraphic" in2="effect1_dropShadow_17_11" result="shape"/>
</filter>
<filter id="filter2_d_17_11" x="1268" y="124" width="60" height="60" filterUnits="userSpaceOnUse" color-interpolation-filters="sRGB">
<feFlood flood-opacity="0" result="BackgroundImageFix"/>
<feColorMatrix in="SourceAlpha" type="matrix" values="0 0 0 0 0 0 0 0 0 0 0 0 0 0 0 0 0 0 127 0" result="hardAlpha"/>
<feOffset/>
<feGaussianBlur stdDeviation="10"/>
<feComposite in2="hardAlpha" operator="out"/>
<feColorMatrix type="matrix" values="0 0 0 0 1 0 0 0 0 1 0 0 0 0 1 0 0 0 0.25 0"/>
<feBlend mode="normal" in2="BackgroundImageFix" result="effect1_dropShadow_17_11"/>
<feBlend mode="normal" in="SourceGraphic" in2="effect1_dropShadow_17_11" result="shape"/>
</filter>
<filter id="filter3_d_17_11" x="1226" y="124" width="60" height="60" filterUnits="userSpaceOnUse" color-interpolation-filters="sRGB">
<feFlood flood-opacity="0" result="BackgroundImageFix"/>
<feColorMatrix in="SourceAlpha" type="matrix" values="0 0 0 0 0 0 0 0 0 0 0 0 0 0 0 0 0 0 127 0" result="hardAlpha"/>
<feOffset/>
<feGaussianBlur stdDeviation="10"/>
<feComposite in2="hardAlpha" operator="out"/>
<feColorMatrix type="matrix" values="0 0 0 0 1 0 0 0 0 1 0 0 0 0 1 0 0 0 0.25 0"/>
<feBlend mode="normal" in2="BackgroundImageFix" result="effect1_dropShadow_17_11"/>
<feBlend mode="normal" in="SourceGraphic" in2="effect1_dropShadow_17_11" result="shape"/>
</filter>
<filter id="filter4_d_17_11" x="1184" y="124" width="60" height="60" filterUnits="userSpaceOnUse" color-interpolation-filters="sRGB">
<feFlood flood-opacity="0" result="BackgroundImageFix"/>
<feColorMatrix in="SourceAlpha" type="matrix" values="0 0 0 0 0 0 0 0 0 0 0 0 0 0 0 0 0 0 127 0" result="hardAlpha"/>
<feOffset/>
<feGaussianBlur stdDeviation="10"/>
<feComposite in2="hardAlpha" operator="out"/>
<feColorMatrix type="matrix" values="0 0 0 0 1 0 0 0 0 1 0 0 0 0 1 0 0 0 0.25 0"/>
<feBlend mode="normal" in2="BackgroundImageFix" result="effect1_dropShadow_17_11"/>
<feBlend mode="normal" in="SourceGraphic" in2="effect1_dropShadow_17_11" result="shape"/>
</filter>
<filter id="filter5_d_17_11" x="54.0004" y="40" width="199.33" height="132.504" filterUnits="userSpaceOnUse" color-interpolation-filters="sRGB">
<feFlood flood-opacity="0" result="BackgroundImageFix"/>
<feColorMatrix in="SourceAlpha" type="matrix" values="0 0 0 0 0 0 0 0 0 0 0 0 0 0 0 0 0 0 127 0" result="hardAlpha"/>
<feOffset dy="4"/>
<feGaussianBlur stdDeviation="2"/>
<feComposite in2="hardAlpha" operator="out"/>
<feColorMatrix type="matrix" values="0 0 0 0 0 0 0 0 0 0 0 0 0 0 0 0 0 0 0.5 0"/>
<feBlend mode="normal" in2="BackgroundImageFix" result="effect1_dropShadow_17_11"/>
<feBlend mode="normal" in="SourceGraphic" in2="effect1_dropShadow_17_11" result="shape"/>
</filter>
<linearGradient id="paint0_linear_17_11" x1="156.905" y1="43.216" x2="156.905" y2="166.572" gradientUnits="userSpaceOnUse">
<stop stop-color="#00FFFF"/>
<stop offset="1" stop-color="#FF00FB"/>
</linearGradient>
<linearGradient id="paint1_linear_17_11" x1="152.885" y1="70.7815" x2="152.885" y2="128.467" gradientUnits="userSpaceOnUse">
<stop stop-color="#00FFFF"/>
<stop offset="1" stop-color="#FF00FB"/>
</linearGradient>
<linearGradient id="paint2_linear_17_11" x1="152.885" y1="70.7815" x2="152.885" y2="128.467" gradientUnits="userSpaceOnUse">
<stop stop-color="#00FFFF"/>
<stop offset="1" stop-color="#FF00FB"/>
</linearGradient>
<linearGradient id="paint3_linear_17_11" x1="152.885" y1="70.7815" x2="152.885" y2="128.467" gradientUnits="userSpaceOnUse">
<stop stop-color="#00FFFF"/>
<stop offset="1" stop-color="#FF00FB"/>
</linearGradient>
<linearGradient id="paint4_linear_17_11" x1="152.885" y1="70.7815" x2="152.885" y2="128.467" gradientUnits="userSpaceOnUse">
<stop stop-color="white"/>
<stop offset="0.05" stop-color="#13ECFF"/>
<stop offset="0.2" stop-color="#69ABC1"/>
<stop offset="0.335" stop-color="#69ABC1"/>
<stop offset="0.5" stop-color="white"/>
<stop offset="0.64" stop-color="#69ABC1"/>
<stop offset="0.8" stop-color="#562F88"/>
<stop offset="0.95" stop-color="#DF7DEF"/>
<stop offset="1" stop-color="white"/>
</linearGradient>
<linearGradient id="paint5_linear_17_11" x1="152.885" y1="70.7815" x2="152.885" y2="128.467" gradientUnits="userSpaceOnUse">
<stop stop-color="white"/>
<stop offset="0.05" stop-color="#13ECFF"/>
<stop offset="0.2" stop-color="#69ABC1"/>
<stop offset="0.335" stop-color="#69ABC1"/>
<stop offset="0.5" stop-color="white"/>
<stop offset="0.64" stop-color="#69ABC1"/>
<stop offset="0.8" stop-color="#562F88"/>
<stop offset="0.95" stop-color="#DF7DEF"/>
<stop offset="1" stop-color="white"/>
</linearGradient>
<linearGradient id="paint6_linear_17_11" x1="152.885" y1="70.7815" x2="152.885" y2="128.467" gradientUnits="userSpaceOnUse">
<stop stop-color="white"/>
<stop offset="0.05" stop-color="#13ECFF"/>
<stop offset="0.2" stop-color="#69ABC1"/>
<stop offset="0.335" stop-color="#69ABC1"/>
<stop offset="0.5" stop-color="white"/>
<stop offset="0.64" stop-color="#69ABC1"/>
<stop offset="0.8" stop-color="#562F88"/>
<stop offset="0.95" stop-color="#DF7DEF"/>
<stop offset="1" stop-color="white"/>
</linearGradient>
<linearGradient id="paint7_linear_17_11" x1="154.263" y1="70.7815" x2="154.263" y2="128.467" gradientUnits="userSpaceOnUse">
<stop stop-color="#00FFFF"/>
<stop offset="1" stop-color="#FF00FB"/>
</linearGradient>
</defs>
</svg>
